{
	"asset":{
		"generator":"Khronos glTF Blender I/O v4.0.44",
		"version":"2.0"
	},
	"scene":0,
	"scenes":[
		{
			"name":"Scene",
			"nodes":[
				0
			]
		}
	],
	"nodes":[
		{
			"mesh":0,
			"name":"Queen"
		}
	],
	"meshes":[
		{
			"name":"Plane.001",
			"primitives":[
				{
					"attributes":{
						"POSITION":0,
						"NORMAL":1,
						"TEXCOORD_0":2
					},
					"indices":3
				}
			]
		}
	],
	"accessors":[
		{
			"bufferView":0,
			"componentType":5126,
			"count":1772,
			"max":[
				0.06816696375608444,
				0.3220222592353821,
				0.07136561721563339
			],
			"min":[
				-0.06814282387495041,
				-0.0007228851318359375,
				-0.06999195367097855
			],
			"type":"VEC3"
		},
		{
			"bufferView":1,
			"componentType":5126,
			"count":1772,
			"type":"VEC3"
		},
		{
			"bufferView":2,
			"componentType":5126,
			"count":1772,
			"type":"VEC2"
		},
		{
			"bufferView":3,
			"componentType":5123,
			"count":2400,
			"type":"SCALAR"
		}
	],
	"bufferViews":[
		{
			"buffer":0,
			"byteLength":21264,
			"byteOffset":0,
			"target":34962
		},
		{
			"buffer":0,
			"byteLength":21264,
			"byteOffset":21264,
			"target":34962
		},
		{
			"buffer":0,
			"byteLength":14176,
			"byteOffset":42528,
			"target":34962
		},
		{
			"buffer":0,
			"byteLength":4800,
			"byteOffset":56704,
			"target":34963
		}
	],
	"buffers":[
		{
			"byteLength":61504,
			"uri":"Queen.bin"
		}
	]
}
