{
	"asset":{
		"generator":"Khronos glTF Blender I/O v4.0.44",
		"version":"2.0"
	},
	"scene":0,
	"scenes":[
		{
			"name":"Scene",
			"nodes":[
				0
			]
		}
	],
	"nodes":[
		{
			"mesh":0,
			"name":"Knight.001"
		}
	],
	"meshes":[
		{
			"name":"Cylinder.002",
			"primitives":[
				{
					"attributes":{
						"POSITION":0,
						"NORMAL":1,
						"TEXCOORD_0":2
					},
					"indices":3
				}
			]
		}
	],
	"accessors":[
		{
			"bufferView":0,
			"componentType":5126,
			"count":1618,
			"max":[
				0.041988350450992584,
				0.20709539949893951,
				0.04422149062156677
			],
			"min":[
				-0.04357478395104408,
				-0.001175031065940857,
				-0.06407814472913742
			],
			"type":"VEC3"
		},
		{
			"bufferView":1,
			"componentType":5126,
			"count":1618,
			"type":"VEC3"
		},
		{
			"bufferView":2,
			"componentType":5126,
			"count":1618,
			"type":"VEC2"
		},
		{
			"bufferView":3,
			"componentType":5123,
			"count":2322,
			"type":"SCALAR"
		}
	],
	"bufferViews":[
		{
			"buffer":0,
			"byteLength":19416,
			"byteOffset":0,
			"target":34962
		},
		{
			"buffer":0,
			"byteLength":19416,
			"byteOffset":19416,
			"target":34962
		},
		{
			"buffer":0,
			"byteLength":12944,
			"byteOffset":38832,
			"target":34962
		},
		{
			"buffer":0,
			"byteLength":4644,
			"byteOffset":51776,
			"target":34963
		}
	],
	"buffers":[
		{
			"byteLength":56420,
			"uri":"Knight.bin"
		}
	]
}
