{
	"asset":{
		"generator":"Khronos glTF Blender I/O v4.0.44",
		"version":"2.0"
	},
	"scene":0,
	"scenes":[
		{
			"name":"Scene",
			"nodes":[
				0
			]
		}
	],
	"nodes":[
		{
			"mesh":0,
			"name":"King"
		}
	],
	"meshes":[
		{
			"name":"Plane",
			"primitives":[
				{
					"attributes":{
						"POSITION":0,
						"NORMAL":1,
						"TEXCOORD_0":2
					},
					"indices":3
				}
			]
		}
	],
	"accessors":[
		{
			"bufferView":0,
			"componentType":5126,
			"count":2140,
			"max":[
				0.06896469742059708,
				0.33922529220581055,
				0.07177184522151947
			],
			"min":[
				-0.06887168437242508,
				-0.0021770568564534187,
				-0.07116886228322983
			],
			"type":"VEC3"
		},
		{
			"bufferView":1,
			"componentType":5126,
			"count":2140,
			"type":"VEC3"
		},
		{
			"bufferView":2,
			"componentType":5126,
			"count":2140,
			"type":"VEC2"
		},
		{
			"bufferView":3,
			"componentType":5123,
			"count":2982,
			"type":"SCALAR"
		}
	],
	"bufferViews":[
		{
			"buffer":0,
			"byteLength":25680,
			"byteOffset":0,
			"target":34962
		},
		{
			"buffer":0,
			"byteLength":25680,
			"byteOffset":25680,
			"target":34962
		},
		{
			"buffer":0,
			"byteLength":17120,
			"byteOffset":51360,
			"target":34962
		},
		{
			"buffer":0,
			"byteLength":5964,
			"byteOffset":68480,
			"target":34963
		}
	],
	"buffers":[
		{
			"byteLength":74444,
			"uri":"King.bin"
		}
	]
}
