{
	"asset":{
		"generator":"Khronos glTF Blender I/O v4.0.44",
		"version":"2.0"
	},
	"scene":0,
	"scenes":[
		{
			"name":"Scene",
			"nodes":[
				0
			]
		}
	],
	"nodes":[
		{
			"mesh":0,
			"name":"Pawn"
		}
	],
	"meshes":[
		{
			"name":"Cylinder.007",
			"primitives":[
				{
					"attributes":{
						"POSITION":0,
						"NORMAL":1,
						"TEXCOORD_0":2
					},
					"indices":3
				}
			]
		}
	],
	"accessors":[
		{
			"bufferView":0,
			"componentType":5126,
			"count":632,
			"max":[
				0.04130034148693085,
				0.16581568121910095,
				0.04039318859577179
			],
			"min":[
				-0.03888965770602226,
				-0.0034611672163009644,
				-0.04114052653312683
			],
			"type":"VEC3"
		},
		{
			"bufferView":1,
			"componentType":5126,
			"count":632,
			"type":"VEC3"
		},
		{
			"bufferView":2,
			"componentType":5126,
			"count":632,
			"type":"VEC2"
		},
		{
			"bufferView":3,
			"componentType":5123,
			"count":822,
			"type":"SCALAR"
		}
	],
	"bufferViews":[
		{
			"buffer":0,
			"byteLength":7584,
			"byteOffset":0,
			"target":34962
		},
		{
			"buffer":0,
			"byteLength":7584,
			"byteOffset":7584,
			"target":34962
		},
		{
			"buffer":0,
			"byteLength":5056,
			"byteOffset":15168,
			"target":34962
		},
		{
			"buffer":0,
			"byteLength":1644,
			"byteOffset":20224,
			"target":34963
		}
	],
	"buffers":[
		{
			"byteLength":21868,
			"uri":"Pawn.bin"
		}
	]
}
