{
	"asset":{
		"generator":"Khronos glTF Blender I/O v4.0.44",
		"version":"2.0"
	},
	"scene":0,
	"scenes":[
		{
			"name":"Scene",
			"nodes":[
				0
			]
		}
	],
	"nodes":[
		{
			"mesh":0,
			"name":"38"
		}
	],
	"meshes":[
		{
			"name":"Sphere.038",
			"primitives":[
				{
					"attributes":{
						"POSITION":0,
						"NORMAL":1,
						"TEXCOORD_0":2
					},
					"indices":3
				}
			]
		}
	],
	"accessors":[
		{
			"bufferView":0,
			"componentType":5126,
			"count":36,
			"max":[
				-0.32102006673812866,
				0.7071067690849304,
				0.8231827616691589
			],
			"min":[
				-0.8786619901657104,
				0.3826834559440613,
				0.21850818395614624
			],
			"type":"VEC3"
		},
		{
			"bufferView":1,
			"componentType":5126,
			"count":36,
			"type":"VEC3"
		},
		{
			"bufferView":2,
			"componentType":5126,
			"count":36,
			"type":"VEC2"
		},
		{
			"bufferView":3,
			"componentType":5123,
			"count":150,
			"type":"SCALAR"
		}
	],
	"bufferViews":[
		{
			"buffer":0,
			"byteLength":432,
			"byteOffset":0,
			"target":34962
		},
		{
			"buffer":0,
			"byteLength":432,
			"byteOffset":432,
			"target":34962
		},
		{
			"buffer":0,
			"byteLength":288,
			"byteOffset":864,
			"target":34962
		},
		{
			"buffer":0,
			"byteLength":300,
			"byteOffset":1152,
			"target":34963
		}
	],
	"buffers":[
		{
			"byteLength":1452,
			"uri":"BP38.bin"
		}
	]
}
